<?xml version="1.0" encoding="utf-8"?>
<!-- Svg Vector Icons : http://www.onlinewebfonts.com/icon -->
<!DOCTYPE svg PUBLIC "-//W3C//DTD SVG 1.1//EN" "http://www.w3.org/Graphics/SVG/1.1/DTD/svg11.dtd">
<svg version="1.1" xmlns="http://www.w3.org/2000/svg" xmlns:xlink="http://www.w3.org/1999/xlink" x="0px" y="0px" viewBox="0 0 1000 1000" enable-background="new 0 0 1000 1000" xml:space="preserve">
<metadata> Svg Vector Icons : http://www.onlinewebfonts.com/icon </metadata>
<g><g transform="translate(0.000000,511.000000) scale(0.100000,-0.100000)"><path d="M4551.4,4991.7c-1841.6-178.2-3423-1367.2-4111.6-3094.7c-166.2-418.4-276.3-886.8-320.3-1367.2C5.4-699.4,395.8-1976.5,1182.5-2955.4c1113-1383.2,2892.6-2063.8,4630.1-1767.6c260.2,44,626.6,138.1,848.8,220.2c274.2,100.1,798.7,364.3,1032.9,520.5c548.5,364.3,1034.9,850.8,1399.2,1399.2c156.1,234.2,420.4,758.7,520.5,1032.9c304.2,830.7,368.3,1797.6,180.2,2680.4c-232.2,1091-850.8,2093.9-1727.5,2798.5c-512.4,412.4-1189,756.7-1795.6,914.8C5700.4,4991.7,5095.9,5043.7,4551.4,4991.7z M5424.2,4433.2c2230-224.2,3921.5-2089.8,3921.5-4323.8c0-2560.3-2220-4574.1-4766.2-4323.8C2353.5-3994.3,658-2124.6,658,109.3C658,2671.6,2882,4687.4,5424.2,4433.2z"/><path d="M4849.7,2733.7c-302.3-78.1-532.5-354.3-536.5-642.6c-2-168.1,220.2-2678.4,250.2-2820.5c44-214.2,278.2-370.3,502.4-334.3c98.1,16,212.2,72.1,268.2,136.1c108.1,118.1,108.1,118.1,234.2,1527.3c66.1,736.7,120.1,1405.3,120.1,1481.3c2,112.1-10,162.1-54.1,254.2c-112.1,238.2-336.3,392.3-584.5,406.4C4973.8,2745.7,4883.7,2743.7,4849.7,2733.7z"/><path d="M4833.7-1504.1c-188.2-58-352.3-286.3-352.3-488.4c0-266.2,254.2-520.4,520.5-520.4s520.5,254.2,520.5,520.4c0,208.2-164.2,430.4-362.3,488.4C5031.9-1466.1,4961.8-1466.1,4833.7-1504.1z"/></g></g>
</svg>