<svg width="82" height="82" viewBox="0 0 82 82" fill="none" xmlns="http://www.w3.org/2000/svg">
<path d="M63.5628 9.88689C63.7638 9.77512 63.9313 9.61166 64.0479 9.41342C64.1645 9.21519 64.226 8.98939 64.226 8.75942V3.59938C64.226 3.37469 64.1673 3.15389 64.0557 2.95885C63.9441 2.76381 63.7835 2.60129 63.5898 2.48738C63.3961 2.37347 63.176 2.31212 62.9513 2.30941C62.7265 2.30669 62.505 2.36271 62.3086 2.47191L49.6776 9.48828C49.9037 8.83878 50.0235 8.15706 50.0324 7.46941C50.0361 6.25821 49.6985 5.07045 49.0584 4.04211C48.4183 3.01377 47.5015 2.18639 46.413 1.6547C45.3244 1.123 44.1082 0.908474 42.9034 1.03567C41.6986 1.16286 40.5539 1.62663 39.6005 2.3739C38.647 3.12117 37.9233 4.12174 37.5121 5.26106C37.101 6.40039 37.019 7.63243 37.2756 8.81616C37.5322 9.9999 38.117 11.0875 38.963 11.9544C39.8091 12.8214 40.8822 13.4326 42.0595 13.7182L27.4699 21.8221C27.2688 21.9338 27.1013 22.0973 26.9847 22.2955C26.8681 22.4938 26.8066 22.7196 26.8066 22.9495V28.1096C26.8067 28.3379 26.8673 28.5621 26.9824 28.7594C27.0975 28.9566 27.2629 29.1197 27.4617 29.2321C27.6604 29.3446 27.8855 29.4022 28.1139 29.3992C28.3422 29.3962 28.5657 29.3327 28.7615 29.2151L39.4853 22.7831L38.4763 33.8772L28.6131 41.2677C28.4528 41.3878 28.3228 41.5437 28.2332 41.7228C28.1436 41.9019 28.097 42.0994 28.097 42.2997V47.4597C28.098 47.698 28.1651 47.9313 28.2907 48.1338C28.4163 48.3363 28.5955 48.5001 28.8085 48.6069C29.0215 48.7138 29.2599 48.7596 29.4974 48.7393C29.7348 48.719 29.962 48.6333 30.1537 48.4917L57.2673 28.4605L56.5021 33.0581C56.4519 33.3609 56.5114 33.6717 56.6699 33.9346C56.8283 34.1976 57.0754 34.3954 57.3666 34.4925L61.2376 35.7826C61.4169 35.843 61.6075 35.8628 61.7954 35.8405C61.9833 35.8182 62.1639 35.7543 62.3241 35.6536C62.4847 35.5542 62.6216 35.4208 62.7251 35.2628C62.8285 35.1047 62.896 34.9259 62.9228 34.7389L64.2131 25.7385C64.3562 24.7348 64.2004 23.7111 63.7651 22.7954C63.3298 21.8797 62.6344 21.1124 61.7655 20.5895C60.8967 20.0665 59.893 19.8111 58.8798 19.855C57.8666 19.8989 56.8889 20.2403 56.0686 20.8365L51.6428 24.0538L52.537 16.0106L63.5628 9.88689ZM39.7099 7.46941C39.7099 6.70399 39.9369 5.95576 40.3622 5.31933C40.7876 4.68291 41.3921 4.18688 42.0995 3.89397C42.8068 3.60105 43.5851 3.52441 44.336 3.67374C45.0869 3.82307 45.7767 4.19165 46.318 4.73288C46.8594 5.27412 47.2281 5.96369 47.3774 6.7144C47.5268 7.46512 47.4501 8.24325 47.1571 8.95041C46.8642 9.65756 46.368 10.262 45.7314 10.6872C45.0949 11.1125 44.3464 11.3394 43.5808 11.3394C42.5542 11.3394 41.5696 10.9317 40.8436 10.2059C40.1177 9.48016 39.7099 8.49581 39.7099 7.46941ZM49.3873 27.9341C49.6034 28.0598 49.8514 28.12 50.101 28.1074C50.3507 28.0948 50.5914 28.01 50.7937 27.8632L57.5847 22.925C57.9948 22.6269 58.4837 22.4562 58.9903 22.4343C59.4969 22.4123 59.9988 22.54 60.4332 22.8015C60.8676 23.063 61.2153 23.4466 61.433 23.9045C61.6506 24.3623 61.7285 24.8742 61.657 25.376L60.5899 32.8465L59.2312 32.3924L60.3395 25.7398C60.3814 25.4866 60.3468 25.2267 60.2401 24.9933C60.1334 24.7598 59.9595 24.5635 59.7406 24.4295C59.5217 24.2954 59.2678 24.2296 59.0113 24.2406C58.7548 24.2516 58.5075 24.3388 58.3008 24.4911L30.6776 44.9029V42.9447L40.4841 35.5916C40.6294 35.4839 40.7505 35.3468 40.8394 35.1892C40.9283 35.0316 40.9831 34.8571 41.0002 34.677L42.2905 20.4869C42.3122 20.2496 42.2677 20.0109 42.1619 19.7973C42.0561 19.5837 41.8932 19.4036 41.6913 19.2769C41.4893 19.1502 41.2563 19.082 41.0179 19.0797C40.7795 19.0774 40.5452 19.1412 40.3408 19.264L29.3873 25.8301V23.7094L61.6454 5.7924V7.9996L50.6957 14.082C50.5157 14.1821 50.3622 14.3237 50.2482 14.4952C50.1342 14.6667 50.0628 14.8629 50.0402 15.0676L48.7499 26.6777C48.7228 26.9263 48.7687 27.1775 48.8819 27.4006C48.995 27.6237 49.1706 27.809 49.3873 27.9341Z" fill="#FCAC00" stroke="#FCAC00"/>
<path d="M18.1175 27.9137L9.08691 34.0674L10.5398 36.1985L19.5704 30.0448L18.1175 27.9137Z" fill="#FCAC00" stroke="#FCAC00" stroke-width="4.33864"/>
<path d="M79.7097 37.1397H53.9032C53.7338 37.1397 53.566 37.173 53.4094 37.2378C53.2529 37.3027 53.1106 37.3977 52.9908 37.5175C52.871 37.6373 52.776 37.7795 52.7111 37.936C52.6463 38.0925 52.6129 38.2603 52.6129 38.4297V50.0398H28.0968C27.9273 50.0398 27.7595 50.0731 27.603 50.138C27.4464 50.2028 27.3042 50.2978 27.1844 50.4176C27.0646 50.5374 26.9695 50.6796 26.9047 50.8361C26.8398 50.9926 26.8064 51.1604 26.8064 51.3298V66.8099H2.29032C1.94811 66.8099 1.61991 66.9458 1.37792 67.1877C1.13594 67.4296 1 67.7578 1 68.0999V79.71C1 79.8794 1.03337 80.0471 1.09822 80.2037C1.16306 80.3602 1.25811 80.5024 1.37792 80.6222C1.49774 80.742 1.63999 80.837 1.79654 80.9018C1.95309 80.9666 2.12087 81 2.29032 81H79.7097C80.0519 81 80.3801 80.8641 80.6221 80.6222C80.8641 80.3802 81 80.0521 81 79.71V38.4297C81 38.0875 80.8641 37.7594 80.6221 37.5175C80.3801 37.2756 80.0519 37.1396 79.7097 37.1396V37.1397ZM78.4193 78.42H3.58064V69.3899H28.0968C28.439 69.3899 28.7672 69.254 29.0092 69.0121C29.2512 68.7702 29.3871 68.442 29.3871 68.0999V52.6198H53.9032C54.2454 52.6198 54.5736 52.4839 54.8156 52.2419C55.0576 52 55.1936 51.6719 55.1936 51.3298V39.7197H78.4193V78.42Z" fill="#FCAC00" stroke="#FCAC00"/>
</svg>
