<svg width="82" height="82" viewBox="0 0 82 82" fill="none" xmlns="http://www.w3.org/2000/svg">
<path d="M74.5405 37.1327C73.4813 37.1327 71.9228 37.5615 70.5154 39.6034C70.4546 39.6922 70.4026 39.7868 70.3624 39.8864C69.5954 41.7745 68.0232 42.9428 67.0071 42.9428C66.1695 42.9428 65.2083 41.9637 64.4629 40.3685V18.6877C64.4629 17.8704 63.8039 17.2088 62.9918 17.2088H41.5783C39.8354 16.4467 38.7644 15.4371 38.7644 14.5399C38.7644 13.6999 39.7383 12.7356 41.3262 11.9853C41.4939 11.9508 41.6587 11.8867 41.8107 11.7911C43.6379 10.6444 44.6442 9.1182 44.6442 7.49338C44.6442 3.79216 39.5226 1 32.7316 1C25.9436 1 20.8239 3.79217 20.8239 7.49338C20.8239 8.50199 21.2064 9.94344 22.9384 11.2902C23.1003 11.5505 23.3405 11.7576 23.6299 11.8759C25.5267 12.6538 26.7037 13.7186 26.7037 14.6543C26.7037 15.4962 25.7288 16.4605 24.1379 17.2088H2.4753C1.66321 17.2088 1.00411 17.8704 1.00411 18.6877V40.6712C0.986455 40.9058 1.02569 41.1454 1.12181 41.3682C2.41253 44.3507 4.31723 45.9933 6.48575 45.9933C8.62778 45.9933 10.5638 44.3192 11.8369 41.384C11.8457 41.3722 11.8536 41.3604 11.8614 41.3475C12.4175 40.4848 13.0413 39.9909 13.5739 39.9909C15.0078 39.9909 17.091 43.5028 17.091 49.0063C17.091 54.5108 15.0078 58.0227 13.5739 58.0227C13.0678 58.0227 12.4764 57.5731 11.9359 56.7824C10.6472 53.8295 8.75234 52.2047 6.59755 52.2047C4.37901 52.2047 2.37818 54.0011 1.10904 57.1334C1.02273 57.3464 0.988415 57.5702 1.00411 57.79V79.5211C1.00411 80.3384 1.66321 81 2.4753 81H24.4537C24.6558 81 24.8549 80.9586 25.0412 80.8768C28.0101 79.5783 29.646 77.6636 29.646 75.4866C29.646 73.3708 28.0356 71.4522 25.2079 70.1705C25.155 70.1231 25.0991 70.0778 25.0383 70.0374C24.5616 69.7159 23.7623 69.0721 23.7623 68.3642C23.7623 66.9228 27.2559 64.8296 32.7316 64.8296C38.2044 64.8296 41.6979 66.9238 41.6979 68.3642C41.6979 68.8493 41.3007 69.4054 40.5936 69.921C40.5357 69.9378 40.4798 69.9585 40.4239 69.9831C37.456 71.2796 35.822 73.1943 35.822 75.3723C35.822 77.635 37.5639 79.595 40.7269 80.8896C40.9035 80.9615 41.0908 80.999 41.2811 80.999H62.9918C63.8039 80.999 64.4629 80.3374 64.4629 79.5201V57.8985C65.223 56.1465 66.2274 55.0698 67.1179 55.0698C67.8653 55.0698 69.3542 56.1287 70.2388 58.1174C70.2781 58.2239 70.329 58.3264 70.3918 58.422C71.5158 60.1346 72.9889 61.0781 74.5405 61.0781C78.2234 61.0781 81 55.9306 81 49.1049C81 42.2793 78.2224 37.1327 74.5405 37.1327V37.1327ZM74.5405 58.1203C74.0413 58.1203 73.4558 57.6786 72.9212 56.9037C71.6619 54.077 69.2884 52.113 67.1179 52.113C64.8984 52.113 62.8976 53.9104 61.6285 57.0437C61.5569 57.2211 61.5206 57.4104 61.5206 57.6007V78.0422H41.5783C39.8354 77.2781 38.7644 76.2675 38.7644 75.3733C38.7644 74.548 39.703 73.6035 41.2379 72.8611C41.4439 72.8345 41.6479 72.7635 41.8333 72.6461C43.6438 71.5025 44.6393 69.9821 44.6393 68.3652C44.6393 64.664 39.5196 61.8728 32.7306 61.8728C25.9396 61.8728 20.8189 64.664 20.8189 68.3652C20.8189 69.3827 21.2083 70.8458 22.9914 72.2035C23.1512 72.4273 23.3729 72.6038 23.6299 72.7102C25.5257 73.4872 26.7027 74.551 26.7027 75.4876C26.7027 76.3277 25.7268 77.2929 24.137 78.0422H3.94547V57.9823C4.7046 56.2362 5.70798 55.1635 6.59657 55.1635C7.4528 55.1635 8.43847 56.1908 9.19073 57.8571C9.22996 57.9902 9.28781 58.1184 9.36431 58.2377C10.5001 60.0064 11.9948 60.9815 13.5739 60.9815C17.2567 60.9815 20.0333 55.8339 20.0333 49.0073C20.0333 42.1816 17.2567 37.0341 13.5739 37.0341C12.0988 37.0341 10.6992 37.881 9.60167 39.4289C9.44965 39.5729 9.32705 39.7493 9.24466 39.9515C8.47474 41.8553 7.41749 43.0374 6.48575 43.0374C5.64914 43.0374 4.69087 42.0614 3.94645 40.4701V20.1686H24.4537C24.6548 20.1686 24.8549 20.1272 25.0403 20.0463C28.0101 18.7508 29.646 16.8362 29.646 14.6562C29.646 12.567 28.0729 10.6681 25.3041 9.38441C25.2345 9.31244 25.156 9.24738 25.0706 9.19019C24.2409 8.63609 23.7662 8.0189 23.7662 7.49438C23.7662 6.05294 27.2588 3.9588 32.7316 3.9588C38.2073 3.9588 41.7019 6.05294 41.7019 7.49438C41.7019 8.00214 41.2673 8.58581 40.4974 9.12118C40.4729 9.13104 40.4474 9.14089 40.4229 9.15174C37.456 10.4502 35.822 12.3649 35.822 14.5409C35.822 16.774 37.61 18.7853 40.7279 20.0582C40.9035 20.1302 41.0918 20.1666 41.2811 20.1666H61.5206V40.686C61.5206 40.8891 61.5618 41.0902 61.6432 41.2766C62.9329 44.258 64.8386 45.8996 67.0071 45.8996C69.3688 45.8996 71.8189 43.9632 73.0174 41.1701C73.346 40.7195 73.9178 40.0895 74.5415 40.0895C75.9754 40.0895 78.0586 43.6014 78.0586 49.1049C78.0586 54.6084 75.9734 58.1203 74.5405 58.1203V58.1203Z" fill="#FCAC00" stroke="#FCAC00" stroke-width="2"/>
</svg>
