<svg width="80" height="80" viewBox="0 0 80 80" fill="none" xmlns="http://www.w3.org/2000/svg">
<path d="M44.0412 37.628H76.1044C77.641 37.628 78.8868 36.3826 78.8868 34.8456C78.8868 15.6317 63.2552 0 44.0412 0C42.5046 0 41.2588 1.24541 41.2588 2.78243V34.8456C41.2588 36.3823 42.5046 37.628 44.0412 37.628ZM46.8236 5.69618C60.7532 7.01505 71.8718 18.1333 73.1906 32.0632H46.8236V5.69618Z" fill="#FCAC00"/>
<path d="M44.0412 37.628H76.1044C77.641 37.628 78.8868 36.3826 78.8868 34.8456C78.8868 15.6317 63.2552 0 44.0412 0C42.5046 0 41.2588 1.24541 41.2588 2.78243V34.8456C41.2588 36.3823 42.5046 37.628 44.0412 37.628ZM46.8236 5.69618C60.7532 7.01505 71.8718 18.1333 73.1906 32.0632H46.8236V5.69618Z" stroke="#FCAC00"/>
<path d="M37.6285 44.0017V13.0911C37.6285 11.5541 36.3827 10.3087 34.846 10.3087C15.6317 10.3087 0 25.9404 0 45.1543C0 64.3683 15.6317 80 34.846 80C44.1531 80 52.9032 76.375 59.4854 69.7937C60.0337 69.2457 60.3256 68.4911 60.296 67.7165C60.2685 67.0101 59.9717 66.3412 59.4727 65.8467L37.6285 44.0017ZM34.846 74.4351C18.7005 74.4351 5.56486 61.2998 5.56486 45.1543C5.56486 29.9471 17.2177 17.4102 32.0636 16.0049V45.1543C32.0636 45.8922 32.3567 46.5997 32.8787 47.1221L53.4913 67.735C48.2547 72.0738 41.7312 74.4351 34.846 74.4351Z" fill="#FCAC00"/>
<path d="M37.6285 44.0017V13.0911C37.6285 11.5541 36.3827 10.3087 34.846 10.3087C15.6317 10.3087 0 25.9404 0 45.1543C0 64.3683 15.6317 80 34.846 80C44.1531 80 52.9032 76.375 59.4854 69.7937C60.0337 69.2457 60.3256 68.4911 60.296 67.7165C60.2685 67.0101 59.9717 66.3412 59.4727 65.8467L37.6285 44.0017ZM34.846 74.4351C18.7005 74.4351 5.56486 61.2998 5.56486 45.1543C5.56486 29.9471 17.2177 17.4102 32.0636 16.0049V45.1543C32.0636 45.8922 32.3567 46.5997 32.8787 47.1221L53.4913 67.735C48.2547 72.0738 41.7312 74.4351 34.846 74.4351Z" stroke="#FCAC00"/>
<path d="M77.2178 40.5329H45.1546C44.029 40.5329 43.0147 41.2107 42.584 42.2506C42.1532 43.2905 42.3914 44.4869 43.1872 45.2831L65.8547 67.9505C65.8807 67.9761 65.9074 68.0021 65.9341 68.0269L65.9389 68.0314C66.4728 68.5245 67.1502 68.7697 67.8265 68.7697C68.5399 68.7697 69.2523 68.497 69.7943 67.955C76.3756 61.374 80.0002 52.6234 80.0002 43.3157C80.0002 41.7783 78.7544 40.5329 77.2178 40.5329ZM67.7349 61.9609L51.8721 46.0977H74.3059C73.7575 51.949 71.4849 57.4359 67.7349 61.9609Z" fill="#FCAC00"/>
<path d="M77.2178 40.5329H45.1546C44.029 40.5329 43.0147 41.2107 42.584 42.2506C42.1532 43.2905 42.3914 44.4869 43.1872 45.2831L65.8547 67.9505C65.8807 67.9761 65.9074 68.0021 65.9341 68.0269L65.9389 68.0314C66.4728 68.5245 67.1502 68.7697 67.8265 68.7697C68.5399 68.7697 69.2523 68.497 69.7943 67.955C76.3756 61.374 80.0002 52.6234 80.0002 43.3157C80.0002 41.7783 78.7544 40.5329 77.2178 40.5329ZM67.7349 61.9609L51.8721 46.0977H74.3059C73.7575 51.949 71.4849 57.4359 67.7349 61.9609Z" stroke="#FCAC00"/>
</svg>
