<svg width="80" height="80" viewBox="0 0 84 84" fill="none" xmlns="http://www.w3.org/2000/svg">
<path fill-rule="evenodd" clip-rule="evenodd" d="M82 7.82304V73.106H51.3171C46.1714 73.106 42 77.0786 42 82V76.4199V75.2026C42 70.6994 45.817 67.0643 50.5255 67.0643H76.1084V7.82304H82V7.82304Z" stroke="#FCAC00" stroke-width="4" stroke-linecap="round" stroke-linejoin="round"/>
<path fill-rule="evenodd" clip-rule="evenodd" d="M42 10.1304C42 5.64814 45.8141 2 50.519 2H76.1084V67.0643H50.5255C45.817 67.0643 42 70.6993 42 75.2025V76.4199V10.1304V10.1304Z" stroke="#FCAC00" stroke-width="4" stroke-linecap="round" stroke-linejoin="round"/>
<path fill-rule="evenodd" clip-rule="evenodd" d="M2 7.82299V73.106H32.6828C37.8286 73.106 42 77.0786 42 82V76.4199V75.2025C42 70.6993 38.183 67.0643 33.4745 67.0643H7.89154V7.82299H2V7.82299Z" stroke="#FCAC00" stroke-width="4" stroke-linecap="round" stroke-linejoin="round"/>
<path fill-rule="evenodd" clip-rule="evenodd" d="M42 10.1304C42 5.64814 38.186 2 33.481 2H7.8916V67.0643H33.4746C38.1831 67.0643 42 70.6993 42 75.2025V76.4199V10.1304V10.1304Z" stroke="#FCAC00" stroke-width="4" stroke-linecap="round" stroke-linejoin="round"/>
</svg>
