<svg width="102" height="31" viewBox="0 0 102 31" fill="none" xmlns="http://www.w3.org/2000/svg">
<g clip-path="url(#clip0_305_204)">
<path d="M52.631 10.2679L57.3967 10.0112C57.5054 10.6605 57.7047 11.1437 58.0309 11.491C58.5564 12.0346 59.2812 12.3064 60.2416 12.3064C60.9483 12.3064 61.51 12.1705 61.8905 11.8836C62.2529 11.6571 62.4704 11.2947 62.4704 10.9172C62.4704 10.5548 62.2711 10.2075 61.9268 9.981C61.5644 9.7092 60.7127 9.4374 59.3718 9.1958C57.1792 8.78811 55.6027 8.24451 54.6786 7.54992C53.7544 6.90062 53.2289 5.94933 53.2652 4.93764C53.2652 4.24305 53.5189 3.54846 53.99 2.97466C54.5336 2.32537 55.2766 1.81197 56.1645 1.52508C57.1248 1.17778 58.4658 0.996582 60.151 0.996582C62.2167 0.996582 63.7932 1.31368 64.8804 1.96297C65.9677 2.59717 66.62 3.62396 66.8193 5.02824L62.108 5.25474C61.9811 4.65075 61.7275 4.21285 61.3107 3.92595C60.8939 3.63906 60.3503 3.50316 59.6436 3.50316C59.0637 3.50316 58.6288 3.60886 58.3389 3.80515C58.0671 3.98635 57.8859 4.25815 57.904 4.56015C57.904 4.78665 58.049 4.99804 58.2664 5.13394C58.502 5.31514 59.0637 5.48124 59.9516 5.63224C62.1442 6.02483 63.7026 6.41743 64.663 6.82513C65.6234 7.23282 66.3119 7.73112 66.7287 8.32001C67.1636 8.92401 67.3811 9.6186 67.3629 10.3283C67.3629 11.1739 67.073 12.0195 66.4931 12.7292C65.8952 13.4691 65.0616 14.0429 64.0831 14.3902C63.0503 14.7676 61.7456 14.9639 60.1872 14.9639C57.4329 14.9639 55.5302 14.5261 54.4611 13.6352C53.392 12.7443 52.7578 11.6269 52.631 10.2679ZM2.05663 14.7374V1.23818H10.4102C11.9504 1.23818 13.1464 1.34388 13.9618 1.57038C14.7591 1.78177 15.4658 2.21967 15.9369 2.80856C16.4624 3.45786 16.7161 4.21285 16.698 4.99804C16.7524 6.32683 15.9369 7.59522 14.5417 8.25961C13.998 8.51631 13.4001 8.69751 12.784 8.78811C13.237 8.89381 13.69 9.075 14.0886 9.2864C14.3967 9.4978 14.6504 9.7394 14.8859 9.99609C15.1578 10.2528 15.3933 10.5397 15.5926 10.8417L18.0208 14.7525H12.331L9.64912 10.6001C9.30483 10.0716 9.0149 9.7243 8.7431 9.5582C8.38069 9.3468 7.9458 9.2411 7.5109 9.2411H7.07601V14.7223H2.05663V14.7374ZM7.07601 6.70433H9.19611C9.64912 6.67413 10.084 6.61373 10.5189 6.52313C10.8451 6.47783 11.135 6.32683 11.3343 6.10033C11.8236 5.55674 11.7511 4.78665 11.1531 4.31855C10.827 4.09205 10.1927 3.97125 9.28671 3.97125H7.07601V6.70433ZM0.915039 26.3039L5.68073 26.0472C5.78945 26.6965 5.98878 27.1797 6.31495 27.527C6.82232 28.0706 7.56526 28.3575 8.52565 28.3575C9.23235 28.3575 9.79409 28.2216 10.1746 27.9347C10.537 27.6931 10.7545 27.3458 10.7545 26.9683C10.7545 26.6059 10.5551 26.2586 10.2109 26.0321C9.84845 25.7603 8.99678 25.4885 7.63775 25.2469C5.44517 24.8392 3.86868 24.2957 2.94454 23.6011C2.02039 22.9518 1.4949 22.0005 1.53114 20.9888C1.53114 20.2942 1.78482 19.5996 2.25596 19.0258C2.79957 18.3765 3.54251 17.8631 4.43042 17.5762C5.3908 17.2289 6.73172 17.0477 8.41693 17.0477C10.4827 17.0477 12.0591 17.3648 13.1464 18.0141C14.2336 18.6634 14.8678 19.6751 15.0672 21.0794L10.3558 21.3059C10.229 20.7019 9.97529 20.264 9.55852 19.9771C9.15987 19.6902 8.59813 19.5543 7.89143 19.5694C7.31158 19.5694 6.87669 19.6751 6.58676 19.8865C6.29683 20.0677 6.13374 20.3395 6.15187 20.6415C6.15187 20.868 6.29683 21.0794 6.51428 21.2153C6.74984 21.3965 7.31158 21.5626 8.19948 21.7136C10.3921 22.1062 11.9504 22.4988 12.9108 22.9065C13.8712 23.3142 14.5598 23.8125 14.9766 24.4014C15.4114 25.0053 15.6289 25.6999 15.6289 26.3945C15.6289 27.2401 15.3208 28.0706 14.7591 28.7803C14.1611 29.5202 13.3276 30.094 12.3491 30.4413C11.3162 30.8188 10.0115 31.0151 8.45317 31.0151C5.69885 31.0151 3.7962 30.5772 2.72709 29.6863C1.65798 28.7803 1.06 27.6629 0.915039 26.3039H0.915039Z" fill="white"/>
<path d="M25.0154 25.2469L29.4006 26.3492C29.165 27.2703 28.6758 28.1461 28.0053 28.9162C27.3892 29.5957 26.5738 30.1242 25.6496 30.4715C24.7074 30.8188 23.5114 31 22.0618 31C20.3041 31 18.8544 30.7886 17.7491 30.3658C16.6256 29.943 15.6652 29.188 14.8498 28.1159C14.0344 27.0438 13.6357 25.6697 13.6357 23.9937C13.6357 21.7589 14.3424 20.0375 15.774 18.8446C17.2055 17.6517 19.2169 17.0477 21.8262 17.0477C23.8738 17.0477 25.4684 17.395 26.6463 18.0745C27.806 18.7691 28.6758 19.8261 29.2556 21.2455L24.8342 22.0609C24.7255 21.7438 24.5624 21.4267 24.345 21.1549C24.0732 20.8378 23.7289 20.5962 23.3121 20.415C22.8953 20.2338 22.4242 20.1583 21.9531 20.1583C20.8115 20.1583 19.9417 20.5358 19.3437 21.3059C18.8907 21.8646 18.6551 22.7555 18.6551 23.9635C18.6551 25.4583 18.9269 26.4851 19.4705 27.0438C20.0142 27.6025 20.7752 27.8743 21.7718 27.8743C22.7322 27.8743 23.4571 27.6478 23.9463 27.2099C24.4356 26.7418 24.798 26.0925 25.0154 25.2469ZM35.2535 17.2742H40.2548V22.0005H45.7271V17.2742H50.7646V30.7735H45.7271V25.3073H40.2548V30.7735H35.2535V17.2742Z" fill="white"/>
<path d="M50.0762 24.0239C50.0762 21.8193 50.8191 20.0979 52.2869 18.8748C53.7546 17.6517 55.8204 17.0327 58.4478 17.0327C61.1478 17.0327 63.2135 17.6366 64.6813 18.8446C66.1491 20.0526 66.8739 21.7438 66.8739 23.9182C66.8739 25.5037 66.5477 26.7872 65.9135 27.7989C65.2974 28.7954 64.337 29.6108 63.1592 30.1544C61.9451 30.7131 60.4411 31 58.6472 31C56.817 31 55.313 30.7584 54.117 30.2752C52.8849 29.7618 51.8701 28.9615 51.1996 27.98C50.4567 26.9231 50.0762 25.6094 50.0762 24.0239ZM55.0774 24.039C55.0774 25.398 55.3855 26.3795 55.9835 26.9835C56.5814 27.5724 57.415 27.8743 58.466 27.8743C59.5351 27.8743 60.3686 27.5875 60.9666 26.9986C61.5646 26.4097 61.8545 25.3678 61.8545 23.8578C61.8545 22.5894 61.5465 21.6532 60.9304 21.0794C60.3143 20.4905 59.4807 20.2036 58.4297 20.2036C57.5056 20.1734 56.6177 20.5056 56.0016 21.0945C55.3855 21.6834 55.0774 22.6649 55.0774 24.039ZM72.002 24.0239C72.002 21.8193 72.7449 20.0979 74.2127 18.8748C75.6804 17.6517 77.7462 17.0327 80.3737 17.0327C83.0736 17.0327 85.1575 17.6366 86.6071 18.8446C88.0567 20.0526 88.7997 21.7438 88.7997 23.9182C88.7997 25.5037 88.4735 26.7872 87.8393 27.7989C87.2232 28.7954 86.2628 29.6108 85.085 30.1544C83.8709 30.7131 82.3669 31 80.573 31C78.7428 31 77.2388 30.7584 76.0429 30.2752C74.8107 29.7618 73.7959 28.9615 73.1255 27.98C72.3825 26.9231 72.002 25.6094 72.002 24.0239ZM77.0032 24.039C77.0032 25.398 77.3113 26.3795 77.9093 26.9835C78.5072 27.5724 79.3408 27.8743 80.3918 27.8743C81.4609 27.8743 82.2944 27.5875 82.8924 26.9986C83.4904 26.4097 83.7803 25.3678 83.7803 23.8578C83.7803 22.5894 83.4723 21.6532 82.8562 21.0794C82.2401 20.4905 81.4065 20.2036 80.3555 20.2036C79.4314 20.1734 78.5254 20.5056 77.9274 21.0945C77.3113 21.6834 77.0032 22.6649 77.0032 24.039Z" fill="white"/>
<path d="M88.274 17.2742H93.2752V27.4515H101.085V30.7735H88.2559V17.2742H88.274Z" fill="white"/>
<path d="M82.7613 16.4952C87.7965 13.3332 89.3491 7.97331 86.2293 4.52339C83.1094 1.07348 76.4984 0.839999 71.4632 4.00191C66.428 7.16382 64.8753 12.5238 67.9952 15.9737C71.1151 19.4236 77.7261 19.6571 82.7613 16.4952Z" fill="white"/>
<path d="M82.7613 16.4952C87.7965 13.3333 89.3492 7.97337 86.2293 4.52345C83.1094 1.07354 76.4984 0.84006 71.4632 4.00197C66.428 7.16388 64.8753 12.5238 67.9952 15.9737C71.1151 19.4237 77.7261 19.6571 82.7613 16.4952Z" fill="white"/>
<path fill-rule="evenodd" clip-rule="evenodd" d="M71.6816 4.24314C66.7506 7.33956 65.3234 12.5173 68.2849 15.792C71.2463 19.0667 77.6124 19.3504 82.5434 16.254C87.4743 13.1576 88.9015 7.97989 85.9401 4.70519C82.9787 1.43048 76.6125 1.14671 71.6816 4.24314ZM67.706 16.1555C64.4277 12.5303 66.1059 6.98816 71.2453 3.76077C76.3848 0.533382 83.2406 0.716558 86.5189 4.34168C89.7972 7.96681 88.1191 13.509 82.9796 16.7364C77.8401 19.9638 70.9843 19.7806 67.706 16.1555Z" fill="white"/>
<path d="M72.0201 9.25624L73.8321 8.19925L76.0609 10.8417C76.4415 11.2645 76.7314 11.7175 76.9489 12.2158C77.0757 12.5933 77.0395 13.001 76.8583 13.3634C76.6227 13.8164 76.2422 14.1939 75.7348 14.4657C75.1368 14.813 74.6294 15.0093 74.1945 15.0697C73.7778 15.1301 73.3429 15.0697 72.9442 14.9187C72.5093 14.7375 72.1288 14.4808 71.8389 14.1486L73.3972 12.9406C73.5241 13.1067 73.6872 13.2577 73.8684 13.3785C73.9952 13.454 74.1402 13.4993 74.3033 13.4993C74.4301 13.4993 74.5569 13.454 74.6475 13.3936C74.8288 13.303 74.9556 13.1218 74.9375 12.9406C74.8831 12.6839 74.7563 12.4272 74.5569 12.2309L72.0201 9.25624ZM77.4562 10.9323L79.1052 9.84513C79.2864 10.0263 79.522 10.1622 79.7757 10.2377C80.1381 10.3283 80.5186 10.2679 80.8266 10.0716C81.0441 9.95083 81.2253 9.78473 81.2978 9.57333C81.4065 9.30154 81.2253 8.99954 80.8991 8.90894C80.8448 8.89384 80.7904 8.87874 80.736 8.87874C80.5186 8.86364 80.1381 8.93914 79.5763 9.13544C78.6522 9.45253 77.9274 9.57333 77.3837 9.52803C76.8582 9.48273 76.369 9.25624 76.0791 8.87874C75.8616 8.62204 75.7529 8.32004 75.7348 8.01805C75.7348 7.67075 75.8435 7.32345 76.0791 7.03656C76.4234 6.62886 76.8401 6.28156 77.3475 6.00977C78.1086 5.57187 78.779 5.36047 79.3589 5.36047C79.9387 5.36047 80.4823 5.58697 80.9897 6.05507L79.3589 7.12716C79.0327 6.77986 78.4166 6.70436 77.9998 6.97616L77.9455 7.02146C77.7643 7.11206 77.6374 7.24796 77.5649 7.41405C77.5106 7.53485 77.5468 7.67075 77.6374 7.77645C77.7099 7.85195 77.8186 7.91235 77.9455 7.91235C78.0904 7.92745 78.3441 7.86705 78.7065 7.73115C79.6126 7.41405 80.3011 7.23286 80.7723 7.17246C81.1709 7.11206 81.5877 7.14226 81.9682 7.27816C82.3125 7.39895 82.6024 7.61035 82.8018 7.86705C83.0555 8.16905 83.2004 8.53144 83.2185 8.90894C83.2367 9.30154 83.1098 9.67903 82.8561 10.0112C82.53 10.4189 82.1132 10.7662 81.6239 11.038C80.6273 11.6118 79.8119 11.8534 79.1596 11.7628C78.4529 11.6722 77.873 11.3702 77.4562 10.9323Z" fill="#282E3E"/>
</g>
<defs>
<clipPath id="clip0_305_204">
<rect width="100.17" height="31" fill="white" transform="translate(0.915039)"/>
</clipPath>
</defs>
</svg>
